<svg xmlns="http://www.w3.org/2000/svg" width="269.59485" height="486.69516" x="0px" y="0px" viewBox="0 0 269.59485 486.69516"><path fill="none" d="M-6.6-9.67h282.283v505.017H-6.6z" style="fill:#020215;fill-opacity:0"/><defs><clipPath id="a" clipPathUnits="userSpaceOnUse"><path d="M0 841.89h595.276V0H0Z"/></clipPath><clipPath id="b" clipPathUnits="userSpaceOnUse"><path d="M309.063 563.75c-.349-.01-.691-.143-1.034-.196a24 24 0 0 0-2.007-.205 61 61 0 0 0-1.92-.1 41 41 0 0 0-.857-.026q-.427.009-.857.026a62 62 0 0 0-1.919.1 24 24 0 0 0-2.007.205c-.342.053-.683.186-1.034.196l-.071.001q-.282 0-.557-.059c-.619-.14-1.082-.564-1.225-1.191a.3.3 0 0 0-.011-.048l-.003-.026a2.2 2.2 0 0 1 .063-.895c.164-.625.547-1.167 1.022-1.595.859-.775 1.986-1.216 3.086-1.515a15 15 0 0 1 2.952-.508c1.007-.062 2.026.073 3.005.261.671.131 1.337.3 1.98.533.933.339 1.865.823 2.524 1.582.369.426.641.941.727 1.501.034.215.049.448.006.662l-.011.048c-.14.627-.607 1.051-1.223 1.191q-.277.06-.557.059z"/></clipPath><clipPath id="c" clipPathUnits="userSpaceOnUse"><path d="M0 841.89h595.276V0H0Z"/></clipPath><clipPath id="d" clipPathUnits="userSpaceOnUse"><path d="m287.114 570.289-.475-4.504-1.754 3.418c-.379.611-.99.352-.99.352-.665-.256-.424-.922-.424-.922s1.788-4.077 1.829-4.207c.037-.113-.031-.144-.054-.156-.108-.055-.182.031-.182.031s-1.821 1.977-2.177 2.302c-.354.326-.756.084-.756.084-.442-.307-.148-.791-.148-.791l2.385-3.266c.577-2.277 1.989-3.415 1.989-3.415 3.144-.768 5.44 1.018 5.44 1.018l-.217 2.701c-1.372-.133-1.551.942-1.567 1.329-.053 1.185 1.109 1.44 1.109 1.44.483-.178 1.21-.238 1.546.283.34.52-.063.905-.063.905-2.397 1.848-4.074-.913-4.074-.913l.22 4.158c-.006.898-.729.937-.729.937q-.054.005-.103.005c-.651 0-.805-.789-.805-.789"/></clipPath><clipPath id="e" clipPathUnits="userSpaceOnUse"><path d="M286.592 569.27h.389v-3.689h-.389z"/></clipPath><clipPath id="f" clipPathUnits="userSpaceOnUse"><path d="M286.591 565.581h.39v3.688h-.39z"/></clipPath><clipPath id="g" clipPathUnits="userSpaceOnUse"><path d="M283.946 567.517h1.489v-3.353h-1.489z"/></clipPath><clipPath id="h" clipPathUnits="userSpaceOnUse"><path d="M283.945 564.165h1.49v3.352h-1.49z"/></clipPath><clipPath id="i" clipPathUnits="userSpaceOnUse"><path d="M0 841.89h595.276V0H0Z"/></clipPath></defs><g clip-path="url(#a)" transform="matrix(5.9131 0 0 -5.9131 -1665.216 3572.513)"><path d="M0 0c.254 3.379 1.084 7.751 1.084 7.751l6.177-.309h.011l1.06-.054 3.325-.17 3.324.17 1.048.048h.012l6.188.315s.189-.987.418-2.392c.013-.097.031-.2.042-.303.006-.018.006-.042.013-.066.273-1.762.582-4.039.661-5.85l-.067-.006c0-.012.006-.018.006-.024-.036-.006-.085-.03-.152-.055-.72-.278-3.197-1.132-5.595-.726-.545 1.544-1.356 3.863-1.448 4.202 0 0-.066.182-.229.382l-.073.091-.006.006a.6.6 0 0 1-.085.084q-.053.039-.11.085a.6.6 0 0 1-.156.097 1.5 1.5 0 0 1-.582.182c-.024.006-.049.006-.078.012a2 2 0 0 1-.273 0H8.799a3 3 0 0 1-.297 0 2 2 0 0 1-.282-.049 1.51 1.51 0 0 1-.978-.805c-.018-.024-.024-.054-.036-.085-.098-.339-.908-2.658-1.453-4.202q-.027-.008-.055-.006C3.324-2.065.872-1.223.157-.945l-.211.085c.012.279.03.563.054.86" style="fill:#fff;fill-opacity:1;fill-rule:nonzero;stroke:none" transform="translate(291.588 527.856)"/><path d="M0 0s.163-1.496 3.863-.932c0 0 .067 0 .176.012.612.054 2.55.321 2.586 1.483 0 0-.043.703-.182.987 0 0 .206.594.491 1.393h-.055c-2.937-.109-4.917.503-5.541.727-.139.054-.212.085-.212.085a20 20 0 0 1-.018-.824q0-.519.037-.939S.914 1.89.66 1.69l-.157-.14a2 2 0 0 1-.206-.23.5.5 0 0 1-.073-.091A1.5 1.5 0 0 1 0 0" style="fill:#ef381f;fill-opacity:1;fill-rule:nonzero;stroke:none" transform="translate(290.407 523.241)"/><path d="M0 0c-.14-.284-.188-.987-.188-.987 0-.018 0-.03.005-.048a.9.9 0 0 1 .11-.382c0-.012.006-.018.017-.03.195-.327.565-.557.976-.709q.045-.016.079-.024a5.7 5.7 0 0 1 1.242-.272h.006c.199-.025.327-.031.327-.031 2.046-.308 3.015.006 3.469.352.031.024.055.048.085.078.291.255.314.503.314.503C6.752-.297 5.474.357 5.311.43q-.009.01-.018.012c.048.491.048 1.096.018 1.762 0 0-.018-.006-.061-.03-.036-.006-.085-.03-.151-.054-.63-.225-2.628-.842-5.595-.727z" style="fill:#ef381f;fill-opacity:1;fill-rule:nonzero;stroke:none" transform="translate(309.64 524.792)"/><path d="M0 0h2.863c.091 0 .195-.006.303-.018.03-.006.056-.006.079-.012.2-.031.406-.091.581-.182a.6.6 0 0 0 .157-.097.4.4 0 0 0 .111-.085 1 1 0 0 0 .084-.084l.006-.006a.7.7 0 0 0 .096-.14c.242-.466 2.12-5.91 2.12-5.91-.139-.406-.181-.733-.158-1.005 0-.018 0-.031.006-.049q.03-.217.109-.381c0-.012.006-.018.018-.03.22-.443.674-.624.976-.709a1 1 0 0 1 .079-.024q.68-.172 1.242-.273h.006c2.348-.436 3.353-.085 3.796.321.031.024.054.049.085.079.09.097.152.2.194.291.545 1.168-.733 2.022-1.012 2.192q-.01.01-.017.012l-.032.018c.02.509.012 1.09-.011 1.714" style="fill:none;stroke:#201d20;stroke-width:.55;stroke-linecap:round;stroke-linejoin:round;stroke-miterlimit:10;stroke-dasharray:none;stroke-opacity:1" transform="translate(303.209 531.344)"/><path d="M0 0c-.085 1.907-.363 4.178-.594 5.856-.007.024-.007.048-.012.066-.193 1.363-.351 2.314-.351 2.314" style="fill:none;stroke:#201d20;stroke-width:.55;stroke-linecap:round;stroke-linejoin:round;stroke-miterlimit:10;stroke-dasharray:none;stroke-opacity:1" transform="translate(314.884 526.99)"/><path d="M0 0h-2.858c-.08 0-.17-.006-.261-.018-.437-.043-.95-.218-1.156-.606a1.5 1.5 0 0 1-.104-.248c-.017-.024-.024-.055-.036-.085-.321-.817-1.029-2.828-1.501-4.196" style="fill:none;stroke:#201d20;stroke-width:.55;stroke-linecap:round;stroke-linejoin:round;stroke-miterlimit:10;stroke-dasharray:none;stroke-opacity:1" transform="translate(303.209 531.344)"/><path d="M0 0v-.006c-.279-.793-.472-1.369-.472-1.369.58-1.677-.545-2.071-1.036-2.198q-.734-.182-1.332-.29c-3.01-.539-3.761.23-3.985.708-.266.569-.103 1.066.17 1.441a.5.5 0 0 0 .073.091c.066.085.133.158.205.23l.158.14c.242.205.454.32.454.32a12 12 0 0 0-.006.921 20 20 0 0 0 .073 1.683c.224 3.361.902 7.37.902 7.37" style="fill:none;stroke:#201d20;stroke-width:.55;stroke-linecap:round;stroke-linejoin:round;stroke-miterlimit:10;stroke-dasharray:none;stroke-opacity:1" transform="translate(297.286 526.184)"/><path d="m0 0 8.435-.861L16.871 0c.084.065 1.045-3.131 1.045-3.131l-2.99-17.523-6.491-2.812-6.49 2.812-2.99 17.523S-.084.065 0 0" style="fill:#ef381f;fill-opacity:1;fill-rule:nonzero;stroke:none" transform="translate(294.808 556.86)"/><path d="M0 0c.02.01.352-.74.369-.785.217-.541.387-1.119.41-1.705.011-.302-.008-.619-.116-.905-.108-.284-.31-.432-.556-.596-.494-.33-1.055-.618-1.651-.7-.507-.071-1.015.045-1.393.406 0 0-2.184.035-.798 2.327z" style="fill:#fff;fill-opacity:1;fill-rule:nonzero;stroke:none" transform="translate(326.11 545.524)"/><path d="M0 0a.3.3 0 0 0 .118-.021.3.3 0 0 0 .089-.071.8.8 0 0 0 .125-.197L.35-.326l.007-.018.433-.791s.064-.183.036-.399a.68.68 0 0 0-.192-.393c-.051-.051-.095-.111-.146-.162a4 4 0 0 0-.458-.392 5 5 0 0 0-.797-.468 5.8 5.8 0 0 0-1.161-.394 7 7 0 0 0-.931-.141c-.134-.012-.28-.022-.39.069-.118.096-.208.235-.303.353q-.093.117-.185.236a2 2 0 0 0-.177.262c-.014.028-.127.28-.077.281 0 0 1.432.038 2.588.896q.279.194.547.401c.156.119.305.246.457.369.123.098.241.208.313.35a.5.5 0 0 1 .046.15c-.001.012-.019.019-.026.026A.3.3 0 0 0-.1-.059c-.024.032.024.047.048.052A.3.3 0 0 0 0 0" style="fill:#ef381f;fill-opacity:1;fill-rule:nonzero;stroke:none" transform="translate(325.451 546.85)"/><path d="M0 0c.169.024.333.042.49.067C2.805.4 4.3.963 4.3.963c.006.048.006.097.012.151q.016.247.024.539c.018.436.018.939.007 1.484q-.009.482-.025.999-.007.329-.025.666v.012c-.018.412-.035.836-.06 1.266-.024.424-.048.854-.079 1.271v.013l-.053.823c-.019.279-.043.551-.062.818-.029.387-.06.763-.085 1.114v.006q-.026.356-.054.666c-.037.43-.067.8-.09 1.102a5 5 0 0 0-.037.394c-.031.284-.043.442-.043.442 2.005-.339 3.676-1.205 4.972-2.144q.327-.235.618-.478c.194-.158.381-.321.557-.479q.264-.237.49-.466a13 13 0 0 0 .872-.945c.085-.096.158-.187.231-.272l.236-.303q.046-.073.09-.127.085-.12.135-.194c.053-.073.078-.115.078-.115a4.2 4.2 0 0 1 1.46.297c.223.079.441.182.653.291.2.102.394.218.587.339.17.109.333.23.497.351q.201.156.399.321c.097.085.207.163.297.26.061.055.158.133.145.224-.006.037-.024.073-.035.109-.013.031-.019.055-.031.085a1 1 0 0 0-.03.079q-.064.165-.128.321a9 9 0 0 1-.533 1.084 9 9 0 0 1-.308.527c-.109.169-.224.339-.338.502a8 8 0 0 1-.365.491c-.121.163-.254.321-.381.478q-.199.235-.406.46-.207.23-.424.448a9 9 0 0 1-.435.43q-.221.211-.448.412a10 10 0 0 1-.455.4q-.23.198-.466.387-.229.183-.467.364-.235.18-.472.351-.228.171-.466.333c-.158.109-.308.218-.466.321-.152.103-.31.2-.46.297q-.229.147-.454.284c-.147.091-.291.182-.443.267-.139.084-.285.169-.424.254a10 10 0 0 0-.412.23q-.2.111-.393.212l-.375.2c-.116.06-.231.115-.352.175-.102.055-.212.11-.32.164-.098.049-.195.091-.298.139-.085.043-.175.085-.26.127a2 2 0 0 1-.2.085 10 10 0 0 0-2.059-1.835q-.517-.355-1.089-.666C1.224 14.249.03 8.302 0 0" style="fill:#fff;fill-opacity:1;fill-rule:nonzero;stroke:none" transform="translate(309.45 537.363)"/><path d="M0 0c.224.92.382 1.405.382 1.405l.09.06c.103.055.206.109.309.17.503.266 1.011.581 1.508.945l.859-.079c.068-.024.134-.055.201-.085l.259-.127c.104-.048.201-.091.298-.139q.165-.082.321-.164c.121-.06.236-.115.351-.176.127-.066.248-.133.375-.199q.193-.102.394-.212c.132-.079.273-.158.412-.23.138-.085.285-.17.424-.255q.225-.128.442-.266.226-.138.454-.285c.15-.097.309-.194.46-.296.158-.103.309-.212.467-.321q.237-.162.466-.333.236-.172.472-.352.238-.182.466-.363.238-.189.467-.388c.151-.127.309-.26.454-.399.15-.133.303-.273.448-.412.151-.139.297-.285.436-.43a16 16 0 0 0 .83-.908c.127-.158.26-.315.381-.479q.19-.236.364-.49a9.296 9.296 0 0 0 .648-1.03 9 9 0 0 0 .532-1.084q.064-.156.128-.321a.4.4 0 0 1 .03-.078c.012-.031.018-.055.03-.085.012-.037.03-.073.036-.109.012-.091-.085-.17-.145-.224-.091-.097-.2-.176-.297-.261-.133-.108-.266-.218-.399-.32-.165-.121-.328-.243-.498-.352a8 8 0 0 0-.586-.339 5 5 0 0 0-.654-.291 4.4 4.4 0 0 0-1.46-.296s-.024.042-.078.115c-.031.048-.079.115-.134.194q-.045.054-.09.127-.11.137-.237.303c-.072.084-.145.175-.23.272a14.552 14.552 0 0 1-1.919 1.889c-.195.164-.401.321-.618.479-1.296.939-2.967 1.804-4.972 2.143 0 0 .012-.157.043-.442.006-.115.017-.242.036-.393q.035-.456.091-1.102.026-.31.054-.666v-.006c.024-.352.055-.727.085-1.115.018-.266.043-.539.061-.817l.054-.824v-.012c.03-.418.054-.848.079-1.271q.035-.647.059-1.266v-.012c.013-.224.019-.449.026-.666.012-.346.017-.679.024-1 .012-.545.012-1.047-.007-1.483a10 10 0 0 0-.024-.539c-.006-.055-.006-.103-.011-.151 0 0-1.496-.564-3.81-.897-.158-.024-.322-.042-.491-.066C-1.823-8.502-.63-2.556 0 0" style="fill:#fff;fill-opacity:1;fill-rule:nonzero;stroke:none" transform="translate(311.303 554.168)"/><path d="M0 0c.02.01.352-.74.369-.785.217-.541.387-1.119.41-1.705.011-.302-.008-.619-.116-.905-.108-.284-.31-.432-.556-.596-.494-.33-1.055-.618-1.651-.7-.507-.071-1.015.045-1.393.406 0 0-2.184.035-.798 2.327z" style="fill:#fde4d4;fill-opacity:1;fill-rule:nonzero;stroke:none" transform="translate(326.11 545.524)"/><path d="M0 0a.3.3 0 0 0 .118-.021.3.3 0 0 0 .089-.071.8.8 0 0 0 .125-.197L.35-.326l.007-.018.433-.791s.064-.183.036-.399a.68.68 0 0 0-.192-.393c-.051-.051-.095-.111-.146-.162a4 4 0 0 0-.458-.392 5 5 0 0 0-.797-.468 5.8 5.8 0 0 0-1.161-.394 7 7 0 0 0-.931-.141c-.134-.012-.28-.022-.39.069-.118.096-.208.235-.303.353q-.093.117-.185.236a2 2 0 0 0-.177.262c-.014.028-.127.28-.077.281 0 0 1.432.038 2.588.896q.279.194.547.401c.156.119.305.246.457.369.123.098.241.208.313.35a.5.5 0 0 1 .046.15c-.001.012-.019.019-.026.026A.3.3 0 0 0-.1-.059c-.024.032.024.047.048.052A.3.3 0 0 0 0 0" style="fill:#ef381f;fill-opacity:1;fill-rule:nonzero;stroke:none" transform="translate(325.451 546.85)"/><path d="M0 0s9.066-2.966 12.477-12.678c0 0 1.063-2.047-1.402-3.057 0 0-1.132-.504-2.128.203 0 0-2.067-.056-.901 2.154 0 0-3.21 5.699-9.094 6.699 0 0 .549-7.933.585-11.325" style="fill:none;stroke:#201d20;stroke-width:.55;stroke-linecap:round;stroke-linejoin:round;stroke-miterlimit:10;stroke-dasharray:none;stroke-opacity:1" transform="translate(314.228 556.771)"/><path d="M0 0s-1.252-1.746-3.812-1.736" style="fill:none;stroke:#201d20;stroke-width:.55;stroke-linecap:round;stroke-linejoin:round;stroke-miterlimit:10;stroke-dasharray:none;stroke-opacity:1" transform="translate(326.163 545.105)"/><path d="M0 0s1.75-2.534 5.082-1.725c0 0-.116-1.596-.274-2.278.094.05 1.059.681 1.651.873l.108.048c.052.021.444.103.444.103l1.193-.787c.279-.167.558-.329.838-.473l.071-.044s.154-.489.38-1.411c.628-2.564 1.819-8.502 1.853-16.796-2.585.316-4.3.958-4.3.958-.239 2.766.435 10.308.553 11.583-2.176-.348-7.028-.913-8.054.751 0 0-1.317.141.455 9.198" style="fill:#fff;fill-opacity:1;fill-rule:nonzero;stroke:none" transform="translate(285.695 559.836)"/><path d="M0 0h7.729a.909.909 0 0 1 0 1.817H0A.908.908 0 1 1 0 0" style="fill:#fff;fill-opacity:1;fill-rule:nonzero;stroke:none" transform="translate(299.379 545.271)"/><path d="M0 0a1.358 1.358 0 0 1 2.715 0A1.358 1.358 0 0 1 0 0m-1.818 0a3.18 3.18 0 0 0 3.175 3.175A3.18 3.18 0 0 0 4.532 0a3.18 3.18 0 0 0-3.175-3.175A3.18 3.18 0 0 0-1.818 0" style="fill:#fff;fill-opacity:1;fill-rule:nonzero;stroke:none" transform="translate(301.886 550.868)"/><path d="M0 0c.233 0 .466.089.644.266a.91.91 0 0 1-.001 1.285l-2.349 2.348a.907.907 0 0 1-1.284 0l-2.349-2.348A.908.908 0 1 1-4.054.266l1.706 1.706L-.643.266A.9.9 0 0 1 0 0" style="fill:#fff;fill-opacity:1;fill-rule:nonzero;stroke:none" transform="translate(305.59 540.942)"/><path d="m0 0-.029-.003L0 .001Z" style="fill:#fff;fill-opacity:1;fill-rule:nonzero;stroke:none" transform="translate(309.444 537.345)"/><path d="M0 0c.947.028 2.244.145 2.451.164A23 23 0 0 0 0 0" style="fill:#fff;fill-opacity:1;fill-rule:nonzero;stroke:none" transform="translate(306.964 537.178)"/><path d="M0 0q.304-.003.601.002A9 9 0 0 0 0 0M0 0s-.48 2.009-3.12 2.309C-.471 2.026 0 0 0 0" style="fill:#fff;fill-opacity:1;fill-rule:nonzero;stroke:none" transform="translate(306.363 537.175)"/><path d="M0 0q.297-.005.602-.002A9 9 0 0 0 0 0" style="fill:#fff;fill-opacity:1;fill-rule:nonzero;stroke:none" transform="translate(299.522 537.178)"/><path d="M0 0a47 47 0 0 1 2.45-.164C1.573-.152.751-.091 0 0" style="fill:#fff;fill-opacity:1;fill-rule:nonzero;stroke:none" transform="translate(297.071 537.342)"/><path d="M0 0v.001l.03-.004z" style="fill:#fff;fill-opacity:1;fill-rule:nonzero;stroke:none" transform="translate(297.041 537.345)"/><path d="M0 0c-2.641-.301-3.12-2.309-3.12-2.309S-2.649-.284 0 0" style="fill:#fff;fill-opacity:1;fill-rule:nonzero;stroke:none" transform="translate(303.243 539.485)"/><path d="M0 0c0-1.289 1.531-2.334 3.421-2.334S6.842-1.289 6.842 0 5.31 2.334 3.421 2.334C1.531 2.334 0 1.289 0 0" style="fill:#ef381f;fill-opacity:1;fill-rule:nonzero;stroke:none" transform="translate(299.822 536.446)"/><path d="M0 0c-.141.004-.817.031-1.108.163a.28.28 0 0 0-.162.268l.174 2.744c.01.145.13.257.276.257.002 0 .153-.004.405-.004 1.098 0 4.88.084 7.416 1.162q.05.022.106.022.03 0 .06-.006a.693.693 0 0 0 .525-.804l.01-1.709a.9.9 0 0 0-.459-.865C7.155 1.178 5.022 0 .143 0Z" style="fill:#ef381f;fill-opacity:1;fill-rule:nonzero;stroke:none" transform="translate(306.708 534.13)"/><path d="M0 0a.6.6 0 0 1-.215-.044c-2.489-1.059-6.224-1.142-7.309-1.142-.245 0-.384.005-.389.005l-.016.001a.55.55 0 0 1-.548-.516l-.173-2.743a.55.55 0 0 1 .32-.535c.321-.146.95-.18 1.206-.188l.158-.001c4.953 0 7.148 1.213 7.238 1.264.52.293.621.829.596 1.131L.863-1.079A.96.96 0 0 1 .117-.013.5.5 0 0 1 0 0m0-.55s.371-.081.312-.498l.007-1.747S.371-3.212 0-3.42c0 0-2.101-1.193-6.966-1.193h-.14s-.742.024-.996.139l.173 2.743s.147-.004.405-.004c1.222 0 4.961.095 7.524 1.185" style="fill:#201d20;fill-opacity:1;fill-rule:nonzero;stroke:none" transform="translate(313.815 539.019)"/><path d="M0 0c-4.881 0-7.013 1.178-7.102 1.229-.419.234-.483.675-.455.898l.004 1.714c-.066.452.28.711.529.766a.3.3 0 0 0 .166-.016C-4.322 3.512-.54 3.429.559 3.429c.251 0 .402.004.404.004a.275.275 0 0 0 .274-.258L1.411.432A.275.275 0 0 0 1.25.164C.961.032.282.005.149 0Z" style="fill:#ef381f;fill-opacity:1;fill-rule:nonzero;stroke:none" transform="translate(299.636 534.13)"/><path d="M0 0a.5.5 0 0 1-.117-.013.964.964 0 0 1-.746-1.067l-.005-1.688c-.024-.302.076-.838.598-1.132.09-.05 2.283-1.263 7.236-1.263h.143c.271.009.9.043 1.221.189a.55.55 0 0 1 .321.535l-.172 2.743a.553.553 0 0 1-.55.516l-.016-.001c-.004 0-.143-.005-.388-.005-1.086 0-4.821.083-7.31 1.142A.6.6 0 0 1 0 0m0-.55c2.563-1.09 6.302-1.185 7.525-1.185.258 0 .404.004.404.004l.174-2.743c-.254-.115-.996-.139-.996-.139h-.141C2.101-4.613 0-3.42 0-3.42c-.371.208-.319.625-.319.625l.007 1.747A.42.42 0 0 0 0-.55" style="fill:#201d20;fill-opacity:1;fill-rule:nonzero;stroke:none" transform="translate(292.67 539.019)"/><path d="M0 0a3.7 3.7 0 0 0-3.696 3.696A3.7 3.7 0 0 0 0 7.392a3.7 3.7 0 0 0 3.695-3.696A3.7 3.7 0 0 0 0 0" style="fill:#ef381f;fill-opacity:1;fill-rule:nonzero;stroke:none" transform="translate(303.243 532.359)"/><path d="M0 0a3.977 3.977 0 0 1-3.972-3.971A3.977 3.977 0 0 1 0-7.942a3.976 3.976 0 0 1 3.971 3.971A3.976 3.976 0 0 1 0 0m0-.55a3.42 3.42 0 1 0 0-6.842A3.42 3.42 0 0 0 0-.55" style="fill:#201d20;fill-opacity:1;fill-rule:nonzero;stroke:none" transform="translate(303.243 540.025)"/><path d="M0 0a2.414 2.414 0 1 1 4.829 0A2.414 2.414 0 0 1 0 0" style="fill:#fabd23;fill-opacity:1;fill-rule:nonzero;stroke:none" transform="translate(300.83 536.055)"/><path d="M0 0a1.573 1.573 0 1 1 3.145-.003A1.573 1.573 0 0 1 0 0" style="fill:#ef381f;fill-opacity:1;fill-rule:nonzero;stroke:none" transform="translate(301.67 536.055)"/><path d="M0 0s.115-.981-.186-1.404c0 0-1.214-.649-3.292-.366 0 0-2.754.075-1.895 2.716 0 0 .74-.987 2.596-1.202 0 0 1.665-.216 2.777.256" style="fill:#ef381f;fill-opacity:1;fill-rule:nonzero;stroke:none" transform="translate(291 559.384)"/><path d="M0 0c-.019.993-.016 4.414.633 11.106 0 0-6.802-1.257-8.055.752 0 0-.667.624-.413 3.167s.904 6.809.904 6.809" style="fill:none;stroke:#201d20;stroke-width:.55;stroke-linecap:round;stroke-linejoin:round;stroke-miterlimit:10;stroke-dasharray:none;stroke-opacity:1" transform="translate(292.661 538.78)"/><path d="M0 0s-.27-2.69-.483-3.744c0 0 .745.626 1.878 1.003" style="fill:none;stroke:#201d20;stroke-width:.55;stroke-linecap:round;stroke-linejoin:round;stroke-miterlimit:10;stroke-dasharray:none;stroke-opacity:1" transform="translate(291.022 559.562)"/><path d="M0 0s.382.036.866.079C.805.121.739.164.678.212L.593.26C.587.254.581.254.569.248a.2.2 0 0 1-.066-.03A.6.6 0 0 1 .388.17C.333.151.285.127.23.103.163.079.103.049.036.018Z" style="fill:#fff;fill-opacity:1;fill-rule:nonzero;stroke:none" transform="translate(292.034 556.668)"/><path d="M0 0c.478-.042.859-.079.859-.079Q.849-.07.83-.06C.763-.03.702 0 .636.024.581.048.533.073.478.091.441.109.406.127.363.139A.2.2 0 0 1 .297.17C.291.176.279.176.272.182L.193.133C.127.085.066.036 0 0" style="fill:#fff;fill-opacity:1;fill-rule:nonzero;stroke:none" transform="translate(313.592 556.747)"/><path d="M0 0c.036-.248 1.302-7.612 1.502-8.763.006-.036.006-.06.018-.127 0-.006.006-.012.006-.024.811-1.877 1.841-3.379 2.979-4.578a13.6 13.6 0 0 1 1.823-1.605c.061-.048.127-.091.188-.133q.37-.272.751-.509.164-.108.327-.199c.145-.085.284-.164.43-.243.109-.066.224-.127.333-.181 5.011-2.57 12.03-2.631 17.034.018q.154.08.309.17c.503.266 1.011.581 1.508.944.066.037.127.085.194.133.623.461 1.229.987 1.81 1.593 1.145 1.205 2.174 2.707 2.992 4.59 0 0 1.489 8.648 1.532 8.914.036.26-.339 10.628-.339 10.628l-6.238 5.825-5.595-.678-4.699-5.481-4.699 5.481-5.596.678-6.237-5.825S-.042.26 0 0" style="fill:#fde4d4;fill-opacity:1;fill-rule:nonzero;stroke:none" transform="translate(286.384 571.977)"/><path d="M0 0c0-1.213 1.345-2.196 3.004-2.196S6.008-1.213 6.008 0 4.663 2.196 3.004 2.196 0 1.213 0 0" style="fill:#f78e9c;fill-opacity:1;fill-rule:nonzero;stroke:none" transform="translate(311.682 566.696)"/><path d="M0 0s2.908.406 3.27-4.234c0 0 .191-3.974-3.27-3.593 0 0-3.294-.214-3.104 3.736C-3.104-4.091-2.75.165 0 0" style="fill:#fff;fill-opacity:1;fill-rule:nonzero;stroke:none" transform="translate(310.315 577.086)"/><path d="M0 0s.877.036.995-1.113H0Z" style="fill:#cf977c;fill-opacity:1;fill-rule:nonzero;stroke:none" transform="translate(303.246 569.68)"/><path d="M0 0c.132.109.329.221.467.073.085-.093.076-.241.007-.338a.6.6 0 0 0-.13-.123 4.1 4.1 0 0 0-1.224-.62 3.8 3.8 0 0 0-.977-.162 5.6 5.6 0 0 0-1.62.189c-.32.087-.629.211-.914.384a3 3 0 0 0-.404.295c-.12.105-.291.231-.288.407.006.356.525.007.648-.082q.03-.02.056-.04c.171-.131.346-.256.532-.362.223-.126.485-.199.733-.255a5 5 0 0 1 .955-.119c.088-.003.176-.009.263-.007q.329.006.648.08A2.5 2.5 0 0 1 0 0" style="fill:#cf977c;fill-opacity:1;fill-rule:nonzero;stroke:none" transform="translate(312.688 569.987)"/><path d="M0 0c0-1.213-1.345-2.196-3.004-2.196S-6.009-1.213-6.009 0s1.345 2.196 3.005 2.196S0 1.213 0 0" style="fill:#f78e9c;fill-opacity:1;fill-rule:nonzero;stroke:none" transform="translate(294.81 566.696)"/><path d="M0 0s-2.909.406-3.27-4.234c0 0-.191-3.974 3.27-3.593 0 0 3.294-.214 3.104 3.736C3.104-4.091 2.75.165 0 0" style="fill:#fff;fill-opacity:1;fill-rule:nonzero;stroke:none" transform="translate(296.178 577.086)"/><path d="M0 0s-.877.036-.995-1.113H0Z" style="fill:#cf977c;fill-opacity:1;fill-rule:nonzero;stroke:none" transform="translate(303.246 569.68)"/><path d="m0 0 .01.047c.143.627.606 1.051 1.224 1.191.205.046.418.064.628.058.35-.01.691-.143 1.035-.196A24 24 0 0 1 4.904.895 62 62 0 0 1 7.68.769a61 61 0 0 1 2.774.126c.671.047 1.343.102 2.008.205.345.053.685.186 1.034.196q.318.01.629-.058c.619-.14 1.082-.564 1.224-1.191L15.358 0c.044-.215.03-.448-.004-.663-.086-.559-.357-1.075-.726-1.5-.659-.76-1.591-1.243-2.524-1.582a13 13 0 0 0-1.982-.532c-.978-.189-1.998-.326-3.005-.262-.99.063-1.994.249-2.95.508-1.103.298-2.229.74-3.087 1.514-.475.428-.859.97-1.021 1.595a2.2 2.2 0 0 0-.064.895z" style="fill:#2d1c19;fill-opacity:1;fill-rule:nonzero;stroke:none" transform="translate(295.566 562.454)"/><path d="M0 0s19.72.581 18.312-20.82c0 0-.425-6.119-2.975-11.436 0 0 .754 5.03.718 7.329l.287 6.502s-.036 1.904-1.653 3.628c-.251.503-4.681 5.122-4.681 5.122s-.335.581-1.407.067l-7.575-3.173S.268-13.093 0-13.049c-.27-.044-1.027.268-1.027.268l-7.574 3.173c-1.072.514-1.407-.067-1.407-.067s-4.431-4.619-4.682-5.122c-1.616-1.724-1.652-3.628-1.652-3.628l.287-6.502c-.036-2.299.718-7.329.718-7.329-2.55 5.317-2.975 11.436-2.975 11.436C-19.72.581 0 0 0 0" style="fill:#ef381f;fill-opacity:1;fill-rule:nonzero;stroke:none" transform="translate(303.246 595.313)"/><path d="M0 0c-.131.109-.328.221-.466.073-.085-.093-.077-.241-.006-.338a.6.6 0 0 1 .129-.123 4.1 4.1 0 0 1 1.223-.62c.317-.096.647-.151.978-.162a5.6 5.6 0 0 1 1.619.189c.32.087.631.211.914.384q.216.13.404.295c.12.105.291.231.288.407-.005.356-.525.007-.647-.082l-.057-.04a4.5 4.5 0 0 0-.532-.362 2.7 2.7 0 0 0-.732-.255 5 5 0 0 0-.954-.119c-.089-.003-.176-.009-.265-.007a3 3 0 0 0-.648.08A2.5 2.5 0 0 0 0 0" style="fill:#cf977c;fill-opacity:1;fill-rule:nonzero;stroke:none" transform="translate(293.803 569.987)"/></g><g clip-path="url(#b)" transform="matrix(5.9131 0 0 -5.9131 -1665.216 3572.513)"><path d="M0 0c0-1.513 3.178-2.74 7.099-2.74 3.92 0 7.098 1.227 7.098 2.74s-3.178 2.74-7.098 2.74S0 1.513 0 0" style="fill:#a04351;fill-opacity:1;fill-rule:nonzero;stroke:none" transform="translate(296.147 557.464)"/></g><g clip-path="url(#c)" transform="matrix(5.9131 0 0 -5.9131 -1665.216 3572.513)"><path d="m0 0 .01.047c.143.627.606 1.051 1.224 1.191.206.046.419.064.629.058.349-.01.69-.143 1.035-.196A24 24 0 0 1 4.905.895a61 61 0 0 1 1.918-.1q.428-.016.857-.026a61 61 0 0 1 2.774.126c.671.047 1.343.102 2.008.205.345.053.686.186 1.034.196q.319.01.629-.058c.619-.14 1.083-.564 1.224-1.191l.01-.047a1.9 1.9 0 0 0-.004-.663c-.087-.559-.359-1.075-.727-1.5-.659-.76-1.591-1.243-2.524-1.582a13 13 0 0 0-1.982-.532c-.978-.189-1.997-.326-3.005-.262-.991.063-1.992.249-2.95.508-1.102.298-2.228.74-3.087 1.514-.475.428-.859.97-1.021 1.595a2.2 2.2 0 0 0-.064.895z" style="fill:none;stroke:#201d20;stroke-width:.55;stroke-linecap:round;stroke-linejoin:round;stroke-miterlimit:10;stroke-dasharray:none;stroke-opacity:1" transform="translate(295.566 562.454)"/><path d="M0 0s.771 5.074.74 7.394l.072 6.495c.086 1.857-1.21 3.566-2.365 4.856a161 161 0 0 1-3.104 3.342q-.335.355-.673.708s-.338.586-1.42.07l-7.649-3.185s-.767-.315-1.036-.269c-.271-.043-1.036.274-1.036.274l-7.637 3.215c-1.079.521-1.419-.066-1.419-.066-1.627-1.689-3.301-3.365-4.78-5.188-.843-1.039-1.566-2.255-1.629-3.628l.278-6.559c-.04-2.321.711-7.805.711-7.805" style="fill:none;stroke:#201d20;stroke-width:.55;stroke-linecap:round;stroke-linejoin:round;stroke-miterlimit:10;stroke-dasharray:none;stroke-opacity:1" transform="translate(318.776 562.999)"/><path d="M0 0c-.036-.108 1.217 5.705-1.43 7.67l-.182.13" style="fill:none;stroke:#201d20;stroke-width:.55;stroke-linecap:round;stroke-linejoin:round;stroke-miterlimit:10;stroke-dasharray:none;stroke-opacity:1" transform="translate(312.981 586.156)"/><path d="M0 0c.035-.108-1.217 5.705 1.429 7.67l.166.111" style="fill:none;stroke:#201d20;stroke-width:.55;stroke-linecap:round;stroke-linejoin:round;stroke-miterlimit:10;stroke-dasharray:none;stroke-opacity:1" transform="translate(293.512 586.156)"/><path d="m0 0 .551 5.926C.456 7.609-1.545 7.545-1.545 7.545l.032-7.453" style="fill:#81c158;fill-opacity:1;fill-rule:nonzero;stroke:none" transform="translate(304.754 596.182)"/><path d="m0 0 1.063 3.008c.187.57.317 1.22.102 1.799-.384 1.037-1.879 1.311-2.755.624L-2.077.534S-.346.329 0 0" style="fill:#81c158;fill-opacity:1;fill-rule:nonzero;stroke:none" transform="translate(306.8 595.769)"/><path d="m0 0-.599 5.933C-.518 7.616 1.48 7.52 1.48 7.52L1.513.067" style="fill:#81c158;fill-opacity:1;fill-rule:nonzero;stroke:none" transform="translate(301.728 596.206)"/><path d="m0 0-1.05 3.013c-.183.569-.309 1.22-.094 1.798.39 1.038 1.885 1.304 2.756.614L2.078.527S.347.327 0 0" style="fill:#81c158;fill-opacity:1;fill-rule:nonzero;stroke:none" transform="translate(299.635 595.781)"/><path d="m0 0-1.049 3.013c-.184.569-.31 1.22-.094 1.798.389 1.038 1.885 1.304 2.756.614l-.093.982c.091 1.668 2.077 1.587 2.079 1.587v.001s1.992.075 2.075-1.594l-.098-.983c.876.688 2.37.414 2.754-.624.215-.578.085-1.229-.101-1.799L7.165-.013" style="fill:none;stroke:#201d20;stroke-width:.55;stroke-linecap:round;stroke-linejoin:round;stroke-miterlimit:10;stroke-dasharray:none;stroke-opacity:1" transform="translate(299.643 595.898)"/><path d="m0 0-.558 5.88" style="fill:none;stroke:#201d20;stroke-width:.55;stroke-linecap:round;stroke-linejoin:round;stroke-miterlimit:10;stroke-dasharray:none;stroke-opacity:1" transform="translate(301.735 596.29)"/><path d="m0 0-.584-5.88" style="fill:none;stroke:#201d20;stroke-width:.55;stroke-linecap:round;stroke-linejoin:round;stroke-miterlimit:10;stroke-dasharray:none;stroke-opacity:1" transform="translate(305.305 602.188)"/><path d="M0 0c.381.446.844.783 1.327 1.039.838.444 1.75.654 2.657.738q.343.032.688.032c.86.001 1.719-.14 2.541-.433A5.1 5.1 0 0 0 8.985.341c.249-.228.494-.494.669-.81.005-.009.036-.08.042-.081l-9.974.171Q-.151-.176 0 0" style="fill:#ef381f;fill-opacity:1;fill-rule:nonzero;stroke:none" transform="translate(298.537 595.4)"/><path d="M0 0q.128.203.278.379c.382.446.844.783 1.327 1.04.838.443 1.75.653 2.657.737q.344.032.688.032a7.5 7.5 0 0 0 2.541-.433c.631-.223 1.246-.552 1.772-1.035.16-.147.318-.309.457-.49" style="fill:none;stroke:#201d20;stroke-width:.55;stroke-linecap:round;stroke-linejoin:round;stroke-miterlimit:10;stroke-dasharray:none;stroke-opacity:1" transform="translate(298.259 595.021)"/><path d="m0 0-.167-.002L-.303 0c-1.462 0-9.01-.277-14.126-5.74-3.481-3.717-5.023-8.989-4.583-15.668.016-.256.462-6.287 3.028-11.637l.016-.031c.78-1.79 1.811-3.366 3.061-4.682a14 14 0 0 1 2.049-1.779l.045-.032q.393-.287.777-.525c.106-.071.227-.145.349-.213q.21-.123.435-.245c.098-.061.227-.129.349-.19 2.516-1.29 5.644-2.002 8.802-2.002 3.21 0 6.231.7 8.736 2.026.118.063.223.119.331.182.514.272 1.037.598 1.529.957q.09.055.182.124c.704.52 1.337 1.076 1.919 1.682 1.268 1.336 2.31 2.937 3.1 4.761 2.552 5.328 2.995 11.349 3.014 11.602.438 6.681-1.104 11.952-4.583 15.67C9.011-.277 1.462 0 0 0m-15.493-32.77v.011l-.004.004zM0-.55c1.823 0 19.497-.523 18.16-20.822 0 0-.425-6.108-2.969-11.421-.818-1.892-1.847-3.394-2.993-4.599a14 14 0 0 0-1.81-1.592c-.067-.049-.127-.097-.194-.134a12.4 12.4 0 0 0-1.507-.944q-.155-.09-.309-.17c-2.488-1.316-5.482-1.962-8.479-1.962-3.02 0-6.045.656-8.555 1.944a5 5 0 0 0-.334.181 16 16 0 0 0-.758.443q-.379.236-.75.508c-.061.043-.127.085-.188.134-.629.46-1.24.993-1.822 1.604-1.138 1.199-2.168 2.701-2.979 4.578l-.001.004v-.009c-2.551 5.316-2.976 11.435-2.976 11.435C-19.799-1.072-2.125-.55-.303-.55q.15-.001.152-.002 0 .001.151.002" style="fill:#201d20;fill-opacity:1;fill-rule:nonzero;stroke:none" transform="translate(303.397 595.865)"/><path d="M0 0a.2.2 0 0 1 .044.086C.099.294.021.5-.104.666a3.4 3.4 0 0 1-.385.441c-.353.33-.773.584-1.225.75-.632.232-1.361.327-2.022.18a2.83 2.83 0 0 1-1.321-.698A3.4 3.4 0 0 1-5.544.8c-.117-.171-.289-.473-.184-.684.082-.162.268-.133.382-.028.127.118.208.29.32.426q.186.23.419.414c.285.227.622.385.977.463.368.08.734.06 1.104.008A2.783 2.783 0 0 0-.811.514c.122-.136.214-.293.33-.433a.5.5 0 0 1 .12-.111C-.248-.101-.084-.097 0 0" style="fill:#201d20;fill-opacity:1;fill-rule:nonzero;stroke:none" transform="translate(313.52 581.601)"/><path d="M0 0a1.016 1.016 0 1 1 2.032 0A1.016 1.016 0 0 1 0 0" style="fill:#201d20;fill-opacity:1;fill-rule:nonzero;stroke:none" transform="translate(307.948 573.39)"/><path d="M0 0c.106.061.12.206.091.324-.045.179-.142.349-.231.51q-.077.14-.17.268a3.1 3.1 0 0 1-.69.701 3.3 3.3 0 0 1-1.243.564 4 4 0 0 1-.884.097 2.4 2.4 0 0 1-.359-.021 2.9 2.9 0 0 1-.863-.272 3.15 3.15 0 0 1-1.025-.833 4 4 0 0 1-.339-.489c-.093-.158-.204-.32-.244-.504-.033-.16-.013-.382.186-.412.133-.02.218.114.266.218.063.136.115.273.19.404.166.296.376.571.631.796.33.29.733.486 1.168.55.343.05.71.05 1.052-.008A2.64 2.64 0 0 0-.785.867q.142-.182.256-.383c.072-.128.121-.283.209-.4a.27.27 0 0 1 .258-.108A.2.2 0 0 1 0 0" style="fill:#201d20;fill-opacity:1;fill-rule:nonzero;stroke:none" transform="translate(313.343 575.083)"/><path d="M0 0a.2.2 0 0 0-.044.086c-.054.208.023.414.148.58.118.158.241.306.386.441.352.33.772.584 1.224.75.632.232 1.361.327 2.023.18a2.8 2.8 0 0 0 1.32-.698c.177-.165.35-.339.486-.539.118-.171.29-.473.185-.684-.081-.162-.269-.133-.382-.028-.127.118-.208.29-.319.426a2.7 2.7 0 0 1-.419.414 2.4 2.4 0 0 1-.978.463c-.368.08-.733.06-1.103.008A2.783 2.783 0 0 1 .811.514C.69.378.597.221.482.081a.5.5 0 0 0-.12-.111C.248-.101.083-.097 0 0" style="fill:#201d20;fill-opacity:1;fill-rule:nonzero;stroke:none" transform="translate(292.971 581.601)"/><path d="M0 0a1.016 1.016 0 1 0-2.032 0A1.016 1.016 0 0 0 0 0" style="fill:#201d20;fill-opacity:1;fill-rule:nonzero;stroke:none" transform="translate(298.543 573.39)"/><path d="M0 0c-.106.061-.12.206-.09.324.045.179.141.349.23.51q.077.14.17.268c.191.268.426.505.69.701.369.274.796.463 1.244.564.29.066.587.096.883.097q.18.003.36-.021c.299-.043.592-.137.862-.272a3.15 3.15 0 0 0 1.025-.833q.189-.232.34-.489c.092-.158.203-.32.243-.504.035-.16.013-.382-.185-.412-.133-.02-.219.114-.267.218-.062.136-.115.273-.189.404a3 3 0 0 1-.63.796c-.331.29-.734.486-1.17.55-.343.05-.709.05-1.052-.008a2.6 2.6 0 0 1-1.011-.398A2.9 2.9 0 0 1 .786.867 3 3 0 0 1 .53.484C.457.356.409.201.321.084a.27.27 0 0 0-.258-.108A.2.2 0 0 0 0 0" style="fill:#201d20;fill-opacity:1;fill-rule:nonzero;stroke:none" transform="translate(293.148 575.083)"/><path d="M0 0s.751-.073 1.194.561c.473.676-.244 1.894-.243 2.253 0 .254-.075.922.391 1.138.223.104.487.034.672-.129.178-.158.41-.44.641-.939.409-.885.76-1.952.354-3.04C2.737-.882 1.915-2.077.606-2.685-.704-3.292 0 0 0 0" style="fill:#fde4d4;fill-opacity:1;fill-rule:nonzero;stroke:none" transform="translate(291.192 562.918)"/><path d="M0 0s-1.411 1.137-1.99 3.416L-4.373 6.68s-.296.485.146.791c0 0 .4.243.756-.083s2.177-2.303 2.177-2.303.074-.084.182-.03c.022.012.091.044.054.156-.042.131-1.829 4.208-1.829 4.208s-.241.666.424.921c0 0 .611.258.99-.352L.281 6.569l.476 4.504s.17.873.909.783c0 0 .721-.038.726-.936l-.219-4.157s1.676 2.76 4.074.913c0 0 .401-.385.064-.905-.338-.521-1.063-.462-1.547-.284 0 0-1.161-.256-1.109-1.439.018-.388.194-1.463 1.567-1.33l.217-2.701S3.143-.769 0 0" style="fill:#fde4d4;fill-opacity:1;fill-rule:nonzero;stroke:none" transform="translate(286.358 559.215)"/></g><g clip-path="url(#d)" transform="matrix(5.9131 0 0 -5.9131 -1665.216 3572.513)"><g clip-path="url(#e)" opacity="0.199997"><g clip-path="url(#f)"><path d="m0 0 .09-.204.252 3.689L-.047.238Z" style="fill:#57575a;fill-opacity:1;fill-rule:nonzero;stroke:none" transform="translate(286.64 565.785)"/></g></g><g clip-path="url(#g)" opacity="0.199997"><g clip-path="url(#h)"><path d="M0 0c.028-.038.429-.709.643-.512.14.13-.083.477-.409 1.163A295 295 0 0 1-.803 2.804L-.028.025" style="fill:#57575a;fill-opacity:1;fill-rule:nonzero;stroke:none" transform="translate(284.75 564.712)"/></g></g></g><g clip-path="url(#i)" transform="matrix(5.9131 0 0 -5.9131 -1665.216 3572.513)"><path d="M0 0c-.053 1.183 1.108 1.438 1.108 1.438.303-.11.699-.175 1.037-.081.098-.452.661-1.523.228-2.142a1.33 1.33 0 0 0-.933-.551C.186-1.39.017-.375 0 0m-2.995-5.135c3.236-.749 4.779 1.104 4.779 1.104 1.31.608 2.131 1.802 2.403 2.529.406 1.088.055 2.155-.354 3.04-.231.5-.462.781-.641.939a.64.64 0 0 1-.598.149l-.002.002c-2.398 1.847-4.074-.913-4.074-.913l.219 4.157c-.005.898-.727.936-.727.936-.739.089-.909-.783-.909-.783l-.475-4.504-1.755 3.418c-.378.611-.989.353-.989.353-.665-.255-.424-.921-.424-.921S-4.756.294-4.713.162c.036-.112-.032-.143-.055-.155a.15.15 0 0 0-.181.03S-6.771 2.014-7.126 2.34c-.356.326-.756.083-.756.083-.442-.306-.147-.791-.147-.791l2.383-3.264c.579-2.279 1.039-2.664 1.405-2.944.316-.241.898-.478 1.246-.559" style="fill:none;stroke:#201d20;stroke-width:.55;stroke-linecap:round;stroke-linejoin:round;stroke-miterlimit:10;stroke-dasharray:none;stroke-opacity:1" transform="translate(290.014 564.264)"/><path d="M0 0s.532-.932-.447-1.271" style="fill:none;stroke:#201d20;stroke-width:.55;stroke-linecap:round;stroke-linejoin:round;stroke-miterlimit:10;stroke-dasharray:none;stroke-opacity:1" transform="translate(292.606 566.891)"/><path d="M0 0a.2.2 0 0 1 .044.086C.099.294.021.5-.104.666a3.4 3.4 0 0 1-.385.441c-.353.33-.773.584-1.225.75-.632.232-1.361.327-2.022.18a2.83 2.83 0 0 1-1.321-.698A3.4 3.4 0 0 1-5.544.8c-.117-.171-.289-.473-.184-.684.082-.162.268-.133.382-.028.127.118.208.29.32.426q.186.23.419.414c.285.227.622.385.977.463.368.08.734.06 1.104.008A2.783 2.783 0 0 0-.811.514c.122-.136.214-.293.33-.433a.5.5 0 0 1 .12-.111C-.248-.101-.084-.097 0 0" style="fill:#201d20;fill-opacity:1;fill-rule:nonzero;stroke:none" transform="translate(313.52 581.601)"/><path d="M0 0a1.016 1.016 0 1 1 2.032 0A1.016 1.016 0 0 1 0 0" style="fill:#201d20;fill-opacity:1;fill-rule:nonzero;stroke:none" transform="translate(307.948 573.39)"/><path d="M0 0c.106.061.12.206.091.324-.045.179-.142.349-.231.51q-.077.14-.17.268a3.1 3.1 0 0 1-.69.701 3.3 3.3 0 0 1-1.243.564 4 4 0 0 1-.884.097 2.4 2.4 0 0 1-.359-.021 2.9 2.9 0 0 1-.863-.272 3.15 3.15 0 0 1-1.025-.833 4 4 0 0 1-.339-.489c-.093-.158-.204-.32-.244-.504-.033-.16-.013-.382.186-.412.133-.02.218.114.266.218.063.136.115.273.19.404.166.296.376.571.631.796.33.29.733.486 1.168.55.343.05.71.05 1.052-.008A2.64 2.64 0 0 0-.785.867q.142-.182.256-.383c.072-.128.121-.283.209-.4a.27.27 0 0 1 .258-.108A.2.2 0 0 1 0 0" style="fill:#201d20;fill-opacity:1;fill-rule:nonzero;stroke:none" transform="translate(313.343 575.083)"/><path d="M0 0a.2.2 0 0 0-.044.086c-.054.208.023.414.148.58.118.158.241.306.386.441.352.33.772.584 1.224.75.632.232 1.361.327 2.023.18a2.8 2.8 0 0 0 1.32-.698c.177-.165.35-.339.486-.539.118-.171.29-.473.185-.684-.081-.162-.269-.133-.382-.028-.127.118-.208.29-.319.426a2.7 2.7 0 0 1-.419.414 2.4 2.4 0 0 1-.978.463c-.368.08-.733.06-1.103.008A2.783 2.783 0 0 1 .811.514C.69.378.597.221.482.081a.5.5 0 0 0-.12-.111C.248-.101.083-.097 0 0" style="fill:#201d20;fill-opacity:1;fill-rule:nonzero;stroke:none" transform="translate(292.971 581.601)"/><path d="M0 0a1.016 1.016 0 1 0-2.032 0A1.016 1.016 0 0 0 0 0" style="fill:#201d20;fill-opacity:1;fill-rule:nonzero;stroke:none" transform="translate(298.543 573.39)"/><path d="M0 0c-.106.061-.12.206-.09.324.045.179.141.349.23.51q.077.14.17.268c.191.268.426.505.69.701.369.274.796.463 1.244.564.29.066.587.096.883.097q.18.003.36-.021c.299-.043.592-.137.862-.272a3.15 3.15 0 0 0 1.025-.833q.189-.232.34-.489c.092-.158.203-.32.243-.504.035-.16.013-.382-.185-.412-.133-.02-.219.114-.267.218-.062.136-.115.273-.189.404a3 3 0 0 1-.63.796c-.331.29-.734.486-1.17.55-.343.05-.709.05-1.052-.008a2.6 2.6 0 0 1-1.011-.398A2.9 2.9 0 0 1 .786.867 3 3 0 0 1 .53.484C.457.356.409.201.321.084a.27.27 0 0 0-.258-.108A.2.2 0 0 0 0 0" style="fill:#201d20;fill-opacity:1;fill-rule:nonzero;stroke:none" transform="translate(293.148 575.083)"/><path d="M0 0a.2.2 0 0 0-.044.086c-.054.207.023.414.148.58.118.158.241.305.386.441.352.329.772.584 1.224.75.632.231 1.361.327 2.023.18a2.83 2.83 0 0 0 1.32-.698 3.3 3.3 0 0 0 .486-.54c.118-.17.29-.472.185-.683-.081-.163-.269-.134-.382-.028-.127.118-.208.29-.319.425a2.7 2.7 0 0 1-.419.415 2.4 2.4 0 0 1-.978.463c-.368.08-.733.06-1.103.008A2.783 2.783 0 0 1 .811.514C.69.378.597.221.481.081A.5.5 0 0 0 .362-.03C.248-.101.083-.097 0 0" style="fill:#201d20;fill-opacity:1;fill-rule:nonzero;stroke:none" transform="translate(292.968 581.581)"/><path d="M0 0a1.015 1.015 0 1 0-2.03 0A1.015 1.015 0 0 0 0 0" style="fill:#201d20;fill-opacity:1;fill-rule:nonzero;stroke:none" transform="translate(298.54 573.371)"/><path d="M0 0c-.106.062-.12.206-.09.325.045.178.141.348.23.509q.077.14.17.268c.191.268.426.505.69.701.369.274.796.463 1.244.564q.436.097.883.097.18.003.36-.021c.299-.043.592-.136.862-.272a3.16 3.16 0 0 0 1.025-.832q.189-.232.34-.49c.092-.157.203-.32.243-.504.034-.159.013-.382-.185-.412-.133-.02-.219.114-.267.218-.062.136-.115.273-.189.404a3 3 0 0 1-.63.796c-.331.29-.734.486-1.17.55-.343.05-.71.05-1.052-.008a2.6 2.6 0 0 1-1.011-.398A3.077 3.077 0 0 1 .53.484C.457.357.409.201.321.084.262.007.161-.044.063-.024A.2.2 0 0 0 0 0" style="fill:#201d20;fill-opacity:1;fill-rule:nonzero;stroke:none" transform="translate(293.146 575.063)"/></g></svg>